<svg width="18" height="22" viewBox="0 0 18 22" fill="none" xmlns="http://www.w3.org/2000/svg">
<path d="M11.2406 6.62526C11.4127 6.53099 11.6064 6.50612 11.7917 6.5545L12.6772 6.75416C13.001 6.82619 13.2776 7.07261 13.4277 7.41634C14.4633 9.81105 15.1698 11.608 15.4346 13.0752C15.6909 14.4905 15.5258 15.5381 14.8471 16.5112C14.8158 16.5564 14.7757 16.5921 14.7301 16.6149C14.6845 16.6378 14.6349 16.6473 14.5855 16.6426C14.5219 16.6375 14.4598 16.6175 14.4027 16.5839C14.3457 16.5503 14.2949 16.5037 14.2532 16.4467C13.8329 15.8844 13.3526 15.2311 12.8809 14.5853C12.6287 14.2394 12.3162 13.9618 11.9647 13.7714C11.6131 13.581 11.2308 13.4823 10.8439 13.4821H7.38533C6.60163 13.4821 5.85759 13.8865 5.34835 14.5853C4.87662 15.2298 4.39739 15.8844 3.97713 16.4467C3.93547 16.5037 3.88464 16.5503 3.8276 16.5839C3.77055 16.6175 3.70841 16.6375 3.64478 16.6426C3.59523 16.6475 3.54541 16.6382 3.49963 16.6153C3.45386 16.5924 3.41352 16.5566 3.38212 16.5112C2.70348 15.5381 2.53838 14.4918 2.79461 13.0752C3.06049 11.608 3.767 9.81105 4.80265 7.41634C4.87676 7.24595 4.98289 7.09774 5.11294 6.98299C5.24299 6.86824 5.39353 6.78998 5.55312 6.75416L6.43867 6.5545C6.62396 6.50612 6.81762 6.53099 6.98973 6.62526C7.05834 6.6657 7.1291 6.70993 7.202 6.75543C7.60404 7.00817 8.05968 7.16234 8.53891 7.16234H9.69142C10.1583 7.15814 10.6171 7.01838 11.0273 6.75543C11.0979 6.711 11.169 6.66761 11.2406 6.62526ZM11.9932 5.31355C11.5764 5.21261 11.1431 5.27658 10.7603 5.49552C10.6808 5.5428 10.6018 5.59124 10.5234 5.64084C10.2553 5.80765 9.97123 5.89864 9.69142 5.89864H8.53891C8.25802 5.89864 7.97391 5.80765 7.70696 5.64084C7.6285 5.59124 7.54952 5.5428 7.47003 5.49552C7.08725 5.27658 6.65388 5.21261 6.23711 5.31355L5.35156 5.51195C5.03143 5.58408 4.7295 5.74146 4.46882 5.97207C4.20814 6.20269 3.9956 6.50044 3.84741 6.84262C2.82141 9.21332 2.04628 11.1556 1.74609 12.8123C1.43733 14.5196 1.62602 15.9817 2.55446 17.3136C3.17091 18.1982 4.23122 18.0188 4.78121 17.282C5.20576 16.7134 5.68927 16.0562 6.161 15.4092C6.31254 15.2013 6.50038 15.0344 6.71168 14.9199C6.92299 14.8054 7.15277 14.746 7.38533 14.7458H10.845C11.3146 14.7458 11.7627 14.9884 12.0704 15.4092C12.5421 16.0562 13.0246 16.7146 13.4491 17.282C14.0002 18.0188 15.0594 18.197 15.6759 17.3136C16.6054 15.9817 16.793 14.5196 16.4842 12.8123C16.1851 11.1556 15.41 9.21332 14.3829 6.84262C14.2347 6.50071 14.0223 6.20314 13.7618 5.97255C13.5014 5.74197 13.1997 5.58444 12.8798 5.51195L11.9943 5.31355H11.9932ZM9.11892 10.3216C9.33217 10.3216 9.53669 10.2217 9.68748 10.044C9.83827 9.86624 9.92299 9.62517 9.92299 9.37381C9.92299 9.12244 9.83827 8.88137 9.68748 8.70363C9.53669 8.52589 9.33217 8.42603 9.11892 8.42603C8.90566 8.42603 8.70114 8.52589 8.55035 8.70363C8.39956 8.88137 8.31484 9.12244 8.31484 9.37381C8.31484 9.62517 8.39956 9.86624 8.55035 10.044C8.70114 10.2217 8.90566 10.3216 9.11892 10.3216Z" fill="white"/>
</svg>
